<svg xmlns="http://www.w3.org/2000/svg" width="33" height="41" viewBox="0 0 33 41" fill="none"><path opacity="0.5" d="M10.8193 10.3794C10.8193 8.77949 11.4549 7.24509 12.5862 6.11377C13.7175 4.98245 15.2519 4.34688 16.8518 4.34688C18.4518 4.34688 19.9862 4.98245 21.1175 6.11377C22.2488 7.24509 22.8844 8.77949 22.8844 10.3794V14.4011H26.906V10.3794C26.906 7.71287 25.8468 5.15554 23.9612 3.27001C22.0757 1.38448 19.5184 0.325195 16.8518 0.325195C14.1853 0.325195 11.628 1.38448 9.74242 3.27001C7.85689 5.15554 6.79761 7.71287 6.79761 10.3794V14.4011H10.8193V10.3794ZM16.8518 32.4987C16.3185 32.4987 15.8071 32.2868 15.4299 31.9097C15.0528 31.5326 14.841 31.0212 14.841 30.4879V24.4553C14.841 23.922 15.0528 23.4106 15.4299 23.0334C15.8071 22.6563 16.3185 22.4445 16.8518 22.4445C17.3851 22.4445 17.8966 22.6563 18.2737 23.0334C18.6508 23.4106 18.8627 23.922 18.8627 24.4553V30.4879C18.8627 31.0212 18.6508 31.5326 18.2737 31.9097C17.8966 32.2868 17.3851 32.4987 16.8518 32.4987Z" fill="#E9CE76"></path><path d="M26.906 14.4004H6.79761C5.19768 14.4004 3.66328 15.036 2.53196 16.1673C1.40064 17.2986 0.765076 18.833 0.765076 20.4329V34.5088C0.765076 36.1088 1.40064 37.6432 2.53196 38.7745C3.66328 39.9058 5.19768 40.5414 6.79761 40.5414H26.906C28.506 40.5414 30.0404 39.9058 31.1717 38.7745C32.303 37.6432 32.9386 36.1088 32.9386 34.5088V20.4329C32.9386 18.833 32.303 17.2986 31.1717 16.1673C30.0404 15.036 28.506 14.4004 26.906 14.4004ZM18.8627 30.4871C18.8627 31.0205 18.6508 31.5319 18.2737 31.909C17.8966 32.2861 17.3851 32.498 16.8518 32.498C16.3185 32.498 15.8071 32.2861 15.4299 31.909C15.0528 31.5319 14.841 31.0205 14.841 30.4871V24.4546C14.841 23.9213 15.0528 23.4098 15.4299 23.0327C15.8071 22.6556 16.3185 22.4438 16.8518 22.4438C17.3851 22.4438 17.8966 22.6556 18.2737 23.0327C18.6508 23.4098 18.8627 23.9213 18.8627 24.4546V30.4871Z" fill="#C49951"></path></svg>