<svg xmlns="http://www.w3.org/2000/svg" width="30" height="40" viewBox="0 0 30 40" fill="none"><path fill-rule="evenodd" clip-rule="evenodd" d="M0.211853 5.12987L0.22406 19.8808C0.22406 32.0585 14.7455 39.3168 14.7455 39.3168C14.7455 39.3168 29.2719 32.4638 29.2719 19.8418L29.2743 5.12987C29.2743 5.12987 22.7704 0.393555 14.7455 0.393555C6.71575 0.393555 0.211853 5.12987 0.211853 5.12987ZM27.016 20.4008C27.016 30.0297 15.4853 36.7143 14.6991 37.0927V37.1293L14.6625 37.1122L14.6259 37.1293V37.0927C13.8398 36.7143 2.30902 30.0297 2.30902 20.4008L2.29925 6.57274C2.29925 6.57274 7.81194 2.72753 14.6259 2.6958H14.6625L14.6991 2.69335C21.5131 2.72509 27.0258 6.57274 27.0258 6.57274L27.016 20.4008ZM24.3109 20.7915C24.3109 29.1777 15.3485 34.1264 14.7358 34.456V34.4853C14.7358 34.4853 14.7113 34.4755 14.7089 34.4706L14.6796 34.4853V34.4535C14.0668 34.124 5.10686 29.1752 5.10686 20.789L5.0971 8.75535C5.0971 8.75535 9.3842 5.41063 14.6796 5.38134H14.7358C20.0336 5.41063 24.3158 8.75535 24.3158 8.75535L24.3109 20.7915Z" fill="#C49951"></path></svg>