<svg xmlns="http://www.w3.org/2000/svg" width="41" height="28" viewBox="0 0 41 28" fill="none"><path opacity="0.5" d="M27.3992 27.9632C24.7234 27.9636 22.1076 27.1705 19.8826 25.6843C17.6575 24.198 15.9232 22.0853 14.8988 19.6134C13.8745 17.1415 13.6062 14.4213 14.1278 11.7968C14.6494 9.1724 15.9376 6.76158 17.8294 4.86924C19.7211 2.9769 22.1316 1.68804 24.7558 1.16563C27.3801 0.643219 30.1004 0.910733 32.5726 1.93434C35.0449 2.95795 37.1581 4.69167 38.645 6.91628C40.1319 9.14088 40.9258 11.7565 40.9262 14.4322V14.4342C40.9224 18.0208 39.4961 21.4595 36.9602 23.9958C34.4243 26.5321 30.9858 27.9589 27.3992 27.9632Z" fill="#E9CE76"></path><path d="M14.2362 27.9632C11.5604 27.9632 8.94472 27.1697 6.71989 25.6832C4.49507 24.1966 2.76103 22.0836 1.73705 19.6115C0.713076 17.1395 0.445158 14.4192 0.967176 11.7949C1.48919 9.17051 2.7777 6.75988 4.66976 4.86782C6.56182 2.97576 8.97245 1.68725 11.5968 1.16523C14.2212 0.643217 16.9414 0.911136 19.4135 1.93511C21.8856 2.95909 23.9985 4.69312 25.4851 6.91795C26.9717 9.14278 27.7651 11.7585 27.7651 14.4342C27.7614 18.0212 26.3348 21.4602 23.7985 23.9965C21.2621 26.5329 17.8231 27.9595 14.2362 27.9632Z" fill="#C49951"></path></svg>