<svg xmlns="http://www.w3.org/2000/svg" viewBox="0 0 733.69 75.25"><defs><style>.cls-1{fill:#fff;}</style></defs><g id="Layer_2" data-name="Layer 2"><g id="Layer_1-2" data-name="Layer 1"><path class="cls-1" d="M41.54,59.74a1.68,1.68,0,0,0-.17-1.29,1.61,1.61,0,0,0-2.22-.6c-.21.1-.41.21-.6.32l-.33.18A23.17,23.17,0,0,1,23.42,61,23,23,0,0,1,7.25,50.74,22.77,22.77,0,0,1,4,31.83a22.65,22.65,0,0,1,9.2-13.41,23.12,23.12,0,0,1,21-3.26,25.23,25.23,0,0,1,6.2,3,1.6,1.6,0,0,0,2.22-.5,1.62,1.62,0,0,0-.47-2.25,26.4,26.4,0,0,0-10-4.2c-.86-.17-1.76-.28-2.62-.39l-1.18-.15H25.27l-.07,0-.39.07-1,.12c-.66.07-1.34.15-2,.27A26.28,26.28,0,0,0,7.11,19.37C1.53,25.43-.78,32.82.23,41.34a25.29,25.29,0,0,0,6.4,14,26.53,26.53,0,0,0,19.43,9.18A24.64,24.64,0,0,0,35.7,63a46.41,46.41,0,0,0,5.06-2.37A1.51,1.51,0,0,0,41.54,59.74Z"></path><path class="cls-1" d="M28.68,43.31a2.29,2.29,0,0,1-1.54,1,2.41,2.41,0,0,1-1.67-.81L23.89,42l-9.14-8.67a2,2,0,0,0-1.31-.58,1.68,1.68,0,0,0-1.6,1.64,1.88,1.88,0,0,0,.64,1.3l9.31,8.84,1.68,1.59a5.41,5.41,0,0,0,3.91,1.48A4.92,4.92,0,0,0,31,45.67L51.41,20.29c.7-.86,1.4-1.73,2.06-2.61a1.54,1.54,0,0,0,0-2,1.5,1.5,0,0,0-1.78-.5,4.06,4.06,0,0,0-1.22,1.08Q41.87,26.9,33.34,37.51Z"></path><path class="cls-1" d="M53,31a1.68,1.68,0,0,0-.84-1.12,1.58,1.58,0,0,0-.73-.18,1.74,1.74,0,0,0-.59.1,1.67,1.67,0,0,0-1,2.13,23.83,23.83,0,0,1,0,11.2,24.75,24.75,0,0,1-3.31,7.61,1.72,1.72,0,0,0-.26,1.36A1.49,1.49,0,0,0,47,53a1.65,1.65,0,0,0,2.37-.63,27.41,27.41,0,0,0,4.46-15A26.18,26.18,0,0,0,53,31Z"></path><path class="cls-1" d="M72.82,30.11a6.09,6.09,0,0,1-2.35-2.29,6.7,6.7,0,0,1,0-6.57A6.07,6.07,0,0,1,72.83,19a7,7,0,0,1,3.39-.83,7.06,7.06,0,0,1,2.59.47,5.45,5.45,0,0,1,2,1.37l-.85.85a5,5,0,0,0-3.73-1.5,5.51,5.51,0,0,0-2.71.68,5,5,0,0,0-1.92,1.88,5.49,5.49,0,0,0,0,5.33,5,5,0,0,0,1.92,1.87,5.51,5.51,0,0,0,2.71.68A4.94,4.94,0,0,0,80,28.24l.85.85a5.53,5.53,0,0,1-2,1.37,7.29,7.29,0,0,1-6-.35Z"></path><path class="cls-1" d="M85.52,30.1a6.1,6.1,0,0,1-2.38-2.29,6.67,6.67,0,0,1,0-6.55A6.05,6.05,0,0,1,85.52,19a7.26,7.26,0,0,1,6.76,0,6,6,0,0,1,2.37,2.3,6.64,6.64,0,0,1,0,6.57,6.07,6.07,0,0,1-2.37,2.29,7.26,7.26,0,0,1-6.76,0Zm6.09-1A5,5,0,0,0,93.5,27.2a5.58,5.58,0,0,0,0-5.34A4.92,4.92,0,0,0,91.61,20a5.72,5.72,0,0,0-5.41,0,4.9,4.9,0,0,0-1.91,1.87,5.51,5.51,0,0,0,0,5.34,4.93,4.93,0,0,0,1.91,1.88,5.8,5.8,0,0,0,5.41,0Z"></path><path class="cls-1" d="M111.59,18.23v12.6h-1.28V20.75l-5,8.48h-.63l-5-8.42v10H98.5V18.23h1.1l5.47,9.34,5.42-9.34Z"></path><path class="cls-1" d="M124.19,19.38a3.94,3.94,0,0,1,1.37,3.17,3.89,3.89,0,0,1-1.37,3.16,5.72,5.72,0,0,1-3.78,1.14H117v4h-1.34V18.23h4.72A5.73,5.73,0,0,1,124.19,19.38Zm-1,5.48a2.81,2.81,0,0,0,1-2.31,2.88,2.88,0,0,0-1-2.35,4.44,4.44,0,0,0-2.87-.82H117v6.3h3.34A4.38,4.38,0,0,0,123.24,24.86Z"></path><path class="cls-1" d="M137,30.83l-2.88-4a8.14,8.14,0,0,1-1,.06h-3.39v4h-1.33V18.23h4.72a5.76,5.76,0,0,1,3.78,1.15,3.93,3.93,0,0,1,1.36,3.17,4,4,0,0,1-.74,2.49,4.13,4.13,0,0,1-2.14,1.47l3.08,4.32Zm-1.06-6a2.85,2.85,0,0,0,1-2.32,2.88,2.88,0,0,0-1-2.35,4.41,4.41,0,0,0-2.86-.82h-3.35V25.7h3.35A4.3,4.3,0,0,0,136,24.87Z"></path><path class="cls-1" d="M149.36,27.47h-7l-1.52,3.36h-1.38l5.76-12.6h1.31l5.76,12.6h-1.4Zm-.49-1.08-3-6.77-3,6.77Z"></path><path class="cls-1" d="M72.53,56.53a9.42,9.42,0,0,1-3.15-1.47L70.77,52a9.4,9.4,0,0,0,2.71,1.34,10.05,10.05,0,0,0,3.13.51,5.09,5.09,0,0,0,2.58-.52A1.57,1.57,0,0,0,80,51.92a1.32,1.32,0,0,0-.49-1.05,3.76,3.76,0,0,0-1.26-.67c-.52-.17-1.21-.35-2.09-.55a28.73,28.73,0,0,1-3.31-1,5.33,5.33,0,0,1-2.21-1.55,4.12,4.12,0,0,1-.92-2.83,5,5,0,0,1,.83-2.79,5.61,5.61,0,0,1,2.52-2,10.22,10.22,0,0,1,4.1-.74,13.52,13.52,0,0,1,3.31.41,9.72,9.72,0,0,1,2.84,1.16l-1.27,3.11a9.82,9.82,0,0,0-4.9-1.39,4.6,4.6,0,0,0-2.54.55,1.7,1.7,0,0,0-.82,1.47,1.42,1.42,0,0,0,.94,1.35,14.32,14.32,0,0,0,2.9.87,30.63,30.63,0,0,1,3.31,1,5.43,5.43,0,0,1,2.21,1.51,4.05,4.05,0,0,1,.92,2.81,4.88,4.88,0,0,1-.84,2.77,5.74,5.74,0,0,1-2.54,2,10.36,10.36,0,0,1-4.12.73A14.48,14.48,0,0,1,72.53,56.53Z"></path><path class="cls-1" d="M100.6,53.51V56.8H86.9V39.11h13.37v3.28H91v3.84h8.21v3.19H91v4.09Z"></path><path class="cls-1" d="M115.76,47.67h3.74v7.18a10.63,10.63,0,0,1-3.33,1.67,12.93,12.93,0,0,1-3.82.58,10.34,10.34,0,0,1-4.95-1.17A8.74,8.74,0,0,1,104,52.67a9.52,9.52,0,0,1,0-9.43A8.66,8.66,0,0,1,107.42,40a10.5,10.5,0,0,1,5-1.18,10.83,10.83,0,0,1,4.22.79,8.39,8.39,0,0,1,3.18,2.27l-2.63,2.43a6.06,6.06,0,0,0-4.57-2,6.28,6.28,0,0,0-3,.71,5.12,5.12,0,0,0-2.05,2,6.29,6.29,0,0,0,0,5.88,5.19,5.19,0,0,0,2,2,6,6,0,0,0,3,.72,6.67,6.67,0,0,0,3.18-.75Z"></path><path class="cls-1" d="M125.25,55a8.08,8.08,0,0,1-2.11-6v-9.9h4.1v9.75q0,4.76,3.94,4.75a3.68,3.68,0,0,0,2.93-1.15,5.3,5.3,0,0,0,1-3.6V39.11h4V49a8.37,8.37,0,0,1-13.92,6Z"></path><path class="cls-1" d="M154.49,56.8l-3.42-4.93h-3.76V56.8h-4.1V39.11h7.66a9.83,9.83,0,0,1,4.08.78,6,6,0,0,1,2.67,2.22,6.17,6.17,0,0,1,.94,3.42,6.05,6.05,0,0,1-.95,3.4,6,6,0,0,1-2.69,2.18l4,5.69Zm-1-13.56a4.32,4.32,0,0,0-2.81-.8h-3.33v6.17h3.33a4.26,4.26,0,0,0,2.81-.81,3.19,3.19,0,0,0,0-4.56Z"></path><path class="cls-1" d="M173.44,53h-8.21l-1.57,3.79h-4.19l7.88-17.69h4.05l7.91,17.69H175Zm-1.29-3.11-2.8-6.78-2.81,6.78Z"></path><path class="cls-1" d="M248.4,75.25a10.39,10.39,0,0,1-1.07-1.33c-1-1.74-2-3.5-2.91-5.27a.67.67,0,0,0-.93-.38c-2,.61-4.09,1.16-6.13,1.75a1.54,1.54,0,0,1-1.75-.38,1.57,1.57,0,0,1-.15-1.79L243,49.79l.34-.84c-1-.1-1.89-.23-2.8-.29a6.06,6.06,0,0,1-6-5.71c-.19-1.72-.37-3.45-.52-5.18a4.3,4.3,0,0,0-1-2.39l-3.27-4a6,6,0,0,1,0-7.88c1-1.2,1.92-2.42,2.95-3.57a5.59,5.59,0,0,0,1.46-3.51c.11-1.58.29-3.17.45-4.75a6,6,0,0,1,5.36-5.38c1.8-.18,3.6-.38,5.4-.53a4.43,4.43,0,0,0,2.52-1.09c1.22-1,2.45-2,3.68-3a6.07,6.07,0,0,1,8.29,0c1.15.94,2.34,1.86,3.45,2.86a5.5,5.5,0,0,0,3.45,1.4c1.54.11,3.07.28,4.6.44A6.05,6.05,0,0,1,276.9,12c.15,1.68.31,3.36.47,5.05a4.28,4.28,0,0,0,1,2.46q1.65,2,3.26,4a6,6,0,0,1,0,8,35.31,35.31,0,0,1-2.35,2.81,7.24,7.24,0,0,0-2.1,5.23c0,1.2-.18,2.39-.32,3.58a6.11,6.11,0,0,1-5.78,5.56c-1,.08-1.94.18-3,.29.13.34.22.62.34.9l7.42,17.73c.06.13.11.27.17.4A1.48,1.48,0,0,1,274.16,70c-2.07-.58-4.14-1.15-6.2-1.76a.7.7,0,0,0-1,.41c-1,1.8-1.92,3.58-2.94,5.34A7.33,7.33,0,0,1,263,75.25h-.88a7.49,7.49,0,0,1-1.08-1.4c-.64-1.37-1.19-2.79-1.77-4.18-.73-1.74-1.46-3.47-2.17-5.21-.37-.89,0-1.65.84-1.71s1,.36,1.24.93c1,2.37,2,4.73,3,7.1.15.37.31.73.53,1.22.87-1.59,1.67-3,2.48-4.49s1.65-1.87,3.31-1.4l4.95,1.38c-.14-.37-.24-.64-.35-.9q-3.36-8-6.73-16.1c-.63-1.5-1-1.59-2.33-.57-.26.19-.5.4-.74.6-1.29,1-2.6,2.09-3.86,3.17a3.63,3.63,0,0,0-.95,1.22c-2.67,6.33-5.3,12.67-8,19a6,6,0,0,1-1.13,1.35Zm7.23-22.6a3.71,3.71,0,0,0,2.55-.89c1.33-1.09,2.66-2.16,4-3.27a6.77,6.77,0,0,1,4-1.62c1.76-.13,3.52-.29,5.26-.53a3.62,3.62,0,0,0,3.19-3.18,35,35,0,0,0,.39-3.94A8.74,8.74,0,0,1,277.44,33c.89-.91,1.63-1.95,2.44-2.94a3.83,3.83,0,0,0,0-5.33l-3.32-4a6.38,6.38,0,0,1-1.39-3.57c-.16-1.83-.3-3.66-.56-5.47a3.68,3.68,0,0,0-3.43-3.18c-1.61-.16-3.22-.34-4.83-.46a7.19,7.19,0,0,1-4.38-1.81c-1.2-1-2.44-2-3.68-3a3.78,3.78,0,0,0-5.09,0q-2,1.65-4,3.32A6.15,6.15,0,0,1,245.75,8l-5.48.55A3.79,3.79,0,0,0,236.79,12c-.16,1.61-.33,3.22-.46,4.83a7.17,7.17,0,0,1-1.8,4.39c-1,1.17-2,2.41-3,3.62a3.82,3.82,0,0,0,0,5.27l3.31,4a6,6,0,0,1,1.37,3.27c.18,1.83.37,3.65.54,5.48A3.72,3.72,0,0,0,240,46.32a36.18,36.18,0,0,0,4.16.42,8.69,8.69,0,0,1,6,2.4c1,.93,2.06,1.73,3.1,2.58A3.67,3.67,0,0,0,255.63,52.65ZM248.81,72,256,54.87c-2.52.17-4.12-1.31-5.77-2.7-.82-.7-1.64-1.4-2.5-2.05a9.1,9.1,0,0,0-1.32-.77c-.5-.27-.75-.1-1,.44q-3.56,8.55-7.15,17.1c-.06.16-.1.34-.18.6l5-1.42a2.35,2.35,0,0,1,3.11,1.29Z"></path><path class="cls-1" d="M273.13,27.48A17.42,17.42,0,1,1,248,11.85l.47-.22a1.12,1.12,0,1,1,.94,2,14.42,14.42,0,0,0-4.87,3.59c-3.92,4.55-5.08,9.75-3,15.39a14.35,14.35,0,0,0,12.2,9.84,15.17,15.17,0,1,0,.9-30.15l-.8,0a1.11,1.11,0,0,1-1.25-1.06,1.12,1.12,0,0,1,1.09-1.15,16.8,16.8,0,0,1,6.12.34A17.43,17.43,0,0,1,273.13,27.48Z"></path><path class="cls-1" d="M251.9,28.65l7.1-7.1c.36-.37.72-.74,1.09-1.09a3.41,3.41,0,1,1,4.83,4.81c-2.95,3-5.92,5.93-8.88,8.89-.55.55-1.09,1.11-1.66,1.66a3.37,3.37,0,0,1-4.92,0Q247,33.44,244.68,31a3.41,3.41,0,1,1,4.79-4.85C250.28,27,251.05,27.78,251.9,28.65Zm.06,6.11A7.34,7.34,0,0,0,253,34q5-5,10-10l.31-.32a1.19,1.19,0,0,0,0-1.65,1.14,1.14,0,0,0-1.65,0,5.4,5.4,0,0,0-.42.41l-8.26,8.25c-.94.94-1.36.94-2.32,0s-1.83-1.84-2.75-2.74a1.18,1.18,0,0,0-1.76-.14,1.21,1.21,0,0,0,.11,1.81q2.29,2.33,4.63,4.62A5.38,5.38,0,0,0,252,34.76Z"></path><path class="cls-1" d="M298.76,30.49a5,5,0,0,1-2-1.19l.53-1a5,5,0,0,0,1.81,1.1,6.51,6.51,0,0,0,2.34.43,4.3,4.3,0,0,0,2.54-.62,1.93,1.93,0,0,0,.85-1.62,1.59,1.59,0,0,0-.46-1.2,3.07,3.07,0,0,0-1.13-.69,17.56,17.56,0,0,0-1.85-.54,20.27,20.27,0,0,1-2.27-.69,3.69,3.69,0,0,1-1.45-1,2.69,2.69,0,0,1-.6-1.85,3.18,3.18,0,0,1,.5-1.74,3.51,3.51,0,0,1,1.55-1.25,6.38,6.38,0,0,1,2.59-.47,7.59,7.59,0,0,1,2.12.3,6,6,0,0,1,1.79.82l-.45,1.06a6,6,0,0,0-1.69-.78,6.12,6.12,0,0,0-1.77-.26,4,4,0,0,0-2.49.64,2,2,0,0,0-.84,1.64,1.68,1.68,0,0,0,.46,1.22,3.09,3.09,0,0,0,1.15.7c.47.16,1.09.34,1.87.53a19.62,19.62,0,0,1,2.24.68,3.59,3.59,0,0,1,1.45,1,2.66,2.66,0,0,1,.59,1.82,3.11,3.11,0,0,1-.51,1.74,3.41,3.41,0,0,1-1.58,1.24,6.46,6.46,0,0,1-2.61.46A8.12,8.12,0,0,1,298.76,30.49Z"></path><path class="cls-1" d="M317,27.47h-7l-1.51,3.36H307l5.76-12.6h1.32l5.76,12.6h-1.41Zm-.48-1.08-3-6.77-3,6.77Z"></path><path class="cls-1" d="M323.78,19.38h-4.43V18.23h10.19v1.15h-4.43V30.83h-1.33Z"></path><path class="cls-1" d="M331.66,18.23H333v12.6h-1.33Z"></path><path class="cls-1" d="M337.88,30.49a5,5,0,0,1-2-1.19l.52-1a5.05,5.05,0,0,0,1.82,1.1,6.51,6.51,0,0,0,2.34.43,4.32,4.32,0,0,0,2.54-.62,1.94,1.94,0,0,0,.84-1.62,1.62,1.62,0,0,0-.45-1.2,3.15,3.15,0,0,0-1.13-.69,17.56,17.56,0,0,0-1.85-.54,19.63,19.63,0,0,1-2.27-.69,3.62,3.62,0,0,1-1.45-1,2.69,2.69,0,0,1-.6-1.85,3.1,3.1,0,0,1,.5-1.74,3.46,3.46,0,0,1,1.55-1.25,6.34,6.34,0,0,1,2.59-.47,7.59,7.59,0,0,1,2.12.3,6.14,6.14,0,0,1,1.79.82l-.45,1.06a6.46,6.46,0,0,0-3.46-1,4,4,0,0,0-2.49.64,2,2,0,0,0-.84,1.64,1.64,1.64,0,0,0,.46,1.22,3.09,3.09,0,0,0,1.15.7c.46.16,1.08.34,1.86.53a19.25,19.25,0,0,1,2.25.68,3.5,3.5,0,0,1,1.44,1,2.61,2.61,0,0,1,.6,1.82,3.11,3.11,0,0,1-.51,1.74,3.47,3.47,0,0,1-1.58,1.24,6.52,6.52,0,0,1-2.61.46A8.08,8.08,0,0,1,337.88,30.49Z"></path><path class="cls-1" d="M349.5,19.38v4.95H356v1.16H349.5v5.34h-1.33V18.23h8.64v1.15Z"></path><path class="cls-1" d="M366.87,27.47h-7l-1.51,3.36H357l5.76-12.6H364l5.76,12.6h-1.41Zm-.49-1.08-3-6.77-3,6.77Z"></path><path class="cls-1" d="M373.79,30.11a6,6,0,0,1-2.36-2.29,6.77,6.77,0,0,1,0-6.57A6,6,0,0,1,373.8,19a7,7,0,0,1,3.39-.83,7.06,7.06,0,0,1,2.59.47,5.33,5.33,0,0,1,2,1.37l-.84.85a5,5,0,0,0-3.73-1.5,5.47,5.47,0,0,0-2.72.69,5,5,0,0,0-1.91,1.87,5.42,5.42,0,0,0,0,5.33,5,5,0,0,0,1.91,1.87,5.57,5.57,0,0,0,2.72.68A5,5,0,0,0,381,28.24l.84.85a5.29,5.29,0,0,1-2,1.37,7.29,7.29,0,0,1-6-.35ZM375,34.38l.3-.69a2.13,2.13,0,0,0,1.19.35,1.39,1.39,0,0,0,.83-.22.74.74,0,0,0,.29-.63.75.75,0,0,0-.28-.6,1.33,1.33,0,0,0-.84-.23h-.41l.43-1.64h.77L377,31.77a1.84,1.84,0,0,1,1.14.46,1.47,1.47,0,0,1-.16,2.14,2.43,2.43,0,0,1-1.48.42A2.73,2.73,0,0,1,375,34.38Z"></path><path class="cls-1" d="M392.22,27.47h-7l-1.52,3.36H382.3l5.76-12.6h1.31l5.76,12.6h-1.4Zm-.49-1.08-3-6.77-3,6.77Zm-2.52-9.48a4.16,4.16,0,0,1-.7-.53q-.33-.27-.51-.39a.78.78,0,0,0-.41-.12.84.84,0,0,0-.67.31,1.48,1.48,0,0,0-.27.85h-.77a2.36,2.36,0,0,1,.47-1.44,1.37,1.37,0,0,1,1.15-.54,1.54,1.54,0,0,1,.73.17,6,6,0,0,1,.73.55,4.52,4.52,0,0,0,.48.37.74.74,0,0,0,.42.13.82.82,0,0,0,.65-.3,1.41,1.41,0,0,0,.28-.82h.78a2.39,2.39,0,0,1-.47,1.42,1.42,1.42,0,0,1-1.15.53A1.51,1.51,0,0,1,389.21,16.91Z"></path><path class="cls-1" d="M399.16,30.1a6,6,0,0,1-2.38-2.29,6.67,6.67,0,0,1,0-6.55,6.05,6.05,0,0,1,2.38-2.3,7.26,7.26,0,0,1,6.76,0,6,6,0,0,1,2.37,2.3,6.64,6.64,0,0,1,0,6.57,6,6,0,0,1-2.37,2.29,7.26,7.26,0,0,1-6.76,0Zm6.09-1a5,5,0,0,0,1.89-1.88,5.58,5.58,0,0,0,0-5.34A4.92,4.92,0,0,0,405.25,20a5.41,5.41,0,0,0-2.7-.68,5.48,5.48,0,0,0-2.71.68,4.9,4.9,0,0,0-1.91,1.87,5.51,5.51,0,0,0,0,5.34,4.93,4.93,0,0,0,1.91,1.88,5.47,5.47,0,0,0,2.71.67A5.41,5.41,0,0,0,405.25,29.08Z"></path><path class="cls-1" d="M310,47.68h3.74v7.17a10.63,10.63,0,0,1-3.33,1.67,12.93,12.93,0,0,1-3.82.58,10.41,10.41,0,0,1-5-1.17,8.87,8.87,0,0,1-3.45-3.26,9.52,9.52,0,0,1,0-9.43A8.75,8.75,0,0,1,301.64,40a10.57,10.57,0,0,1,5-1.18,10.88,10.88,0,0,1,4.23.79,8.39,8.39,0,0,1,3.18,2.27l-2.63,2.43a6.08,6.08,0,0,0-4.57-2,6.25,6.25,0,0,0-3,.71,5.06,5.06,0,0,0-2,2,6.31,6.31,0,0,0,0,5.89,5.23,5.23,0,0,0,2,2,6,6,0,0,0,3,.73,6.67,6.67,0,0,0,3.18-.76Z"></path><path class="cls-1" d="M329.16,53H321l-1.57,3.79h-4.19l7.88-17.69h4.05L335,56.8h-4.3Zm-1.28-3.11-2.81-6.77-2.81,6.77Z"></path><path class="cls-1" d="M348.15,56.8l-3.42-4.93H341V56.8h-4.1V39.11h7.66a9.83,9.83,0,0,1,4.08.78,6,6,0,0,1,2.67,2.22,6.19,6.19,0,0,1,.94,3.42,6.05,6.05,0,0,1-1,3.4,6,6,0,0,1-2.69,2.18l4,5.69Zm-1-13.56a4.32,4.32,0,0,0-2.81-.8H341v6.17h3.33a4.26,4.26,0,0,0,2.81-.81,3.19,3.19,0,0,0,0-4.56Z"></path><path class="cls-1" d="M367.1,53h-8.21l-1.57,3.79h-4.19L361,39.11h4.05L373,56.8h-4.3Zm-1.29-3.11L363,43.13,360.2,49.9Z"></path><path class="cls-1" d="M391,39.11V56.8h-3.36l-8.82-10.74V56.8h-4.05V39.11h3.39L387,49.85V39.11Z"></path><path class="cls-1" d="M398.9,42.44h-5.66V39.11h15.42v3.33H403V56.8h-4.1Z"></path><path class="cls-1" d="M410.86,39.11H415V56.8h-4.09Z"></path><path class="cls-1" d="M419.15,39.11h8a11.25,11.25,0,0,1,5.1,1.1,8.17,8.17,0,0,1,3.43,3.09,9.4,9.4,0,0,1,0,9.3,8.13,8.13,0,0,1-3.43,3.1,11.39,11.39,0,0,1-5.1,1.1h-8ZM427,53.44A6,6,0,0,0,431.22,52a5.24,5.24,0,0,0,1.58-4,5.22,5.22,0,0,0-1.58-4A6,6,0,0,0,427,42.47h-3.74v11Z"></path><path class="cls-1" d="M451.42,53h-8.21l-1.57,3.79h-4.19l7.88-17.69h4.05l7.91,17.69H453Zm-1.29-3.11-2.8-6.77-2.81,6.77Z"></path><path class="cls-1" d="M534.54,8.35a31.16,31.16,0,0,1,4.13,1,14.13,14.13,0,0,1,9.22,11.37,44.78,44.78,0,0,1,.25,6c0,1.24,0,2.47,0,3.76h4.79a3.3,3.3,0,0,1,3.18,1.93,4.09,4.09,0,0,1,.37,1.65q0,14.61,0,29.21a3.42,3.42,0,0,1-3.58,3.56q-19.51,0-39,0a3.41,3.41,0,0,1-3.57-3.56q0-14.61,0-29.21a3.43,3.43,0,0,1,3.61-3.58h4.73v-.67c0-2.17,0-4.34,0-6.52.14-6.39,3.08-11,8.89-13.73a25.51,25.51,0,0,1,4.16-1.16l.55-.11Zm6.71,22.19a2.16,2.16,0,0,0,0-.29c0-2.4,0-4.8,0-7.2a7.67,7.67,0,0,0-.89-3.57A7.8,7.8,0,0,0,537,16.11l-.35-.2a1.14,1.14,0,1,1,1.12-2,10.08,10.08,0,0,1,5.79,9.32c.05,2.21,0,4.42,0,6.63v.6h2.29c0-2.4,0-4.76,0-7.13a12.86,12.86,0,0,0-2-7,12.46,12.46,0,0,0-23,6.92c0,2.06,0,4.12,0,6.18v1h2.29v-7a10.06,10.06,0,0,1,3.48-8,14.88,14.88,0,0,1,2.68-1.71,1.09,1.09,0,0,1,1.51.5,1.12,1.12,0,0,1-.5,1.51L530,16a7.78,7.78,0,0,0-4.53,7.4c0,2.2,0,4.39,0,6.58v.57h4a1.15,1.15,0,1,1,0,2.28H514.16c-1.2,0-1.58.38-1.58,1.58V63c0,1.2.38,1.57,1.58,1.57h38.47c1.2,0,1.57-.37,1.57-1.57V34.39c0-1.19-.37-1.57-1.57-1.57H538a2.63,2.63,0,0,1-.79-.09,1,1,0,0,1-.75-1,1,1,0,0,1,.77-1.08,2.46,2.46,0,0,1,.67-.08Z"></path><path class="cls-1" d="M533.44,57.18h-2.51c-1,0-1.42-.5-1.33-1.44.2-2.12.43-4.24.67-6.36a1,1,0,0,0-.29-1,4.73,4.73,0,0,1-.68-5.84,4.85,4.85,0,0,1,5.23-2.17A4.8,4.8,0,0,1,538.18,45,4.49,4.49,0,0,1,537,48.24a1.13,1.13,0,0,0-.36,1c.23,2,.42,3.94.63,5.91,0,.23.06.45.07.68A1.16,1.16,0,0,1,536,57.17C535.16,57.19,534.3,57.18,533.44,57.18Zm1.42-2.32c0-.14,0-.25,0-.36-.19-1.85-.35-3.71-.6-5.55a1.89,1.89,0,0,1,.77-2,2.37,2.37,0,0,0,.69-2.79,2.51,2.51,0,0,0-2.41-1.58A2.55,2.55,0,0,0,531,44.3a2.47,2.47,0,0,0,.94,2.78,1.46,1.46,0,0,1,.72,1.38c-.14,1.15-.26,2.3-.38,3.46-.1,1-.19,1.95-.29,2.94Z"></path><path class="cls-1" d="M533.45,15.21a1.14,1.14,0,1,1,1.19-1.14A1.17,1.17,0,0,1,533.45,15.21Z"></path><path class="cls-1" d="M533.57,30.54a1.13,1.13,0,0,1,1.11,1.14,1.14,1.14,0,0,1-1.12,1.14,1.14,1.14,0,1,1,0-2.28Z"></path><path class="cls-1" d="M585.78,19.38a3.94,3.94,0,0,1,1.37,3.17,3.89,3.89,0,0,1-1.37,3.16A5.72,5.72,0,0,1,582,26.85h-3.38v4h-1.33V18.23H582A5.73,5.73,0,0,1,585.78,19.38Zm-.95,5.49a2.85,2.85,0,0,0,1-2.32,2.88,2.88,0,0,0-1-2.35,4.43,4.43,0,0,0-2.86-.82h-3.35v6.3H582A4.43,4.43,0,0,0,584.83,24.87Z"></path><path class="cls-1" d="M598.63,30.83l-2.88-4a8.14,8.14,0,0,1-1,.06h-3.39v4H590V18.23h4.72a5.76,5.76,0,0,1,3.78,1.15,3.93,3.93,0,0,1,1.36,3.17,4,4,0,0,1-.74,2.49A4.13,4.13,0,0,1,597,26.51l3.08,4.32Zm-1.06-6a2.85,2.85,0,0,0,1-2.32,2.88,2.88,0,0,0-1-2.35,4.41,4.41,0,0,0-2.86-.82h-3.35V25.7h3.35A4.3,4.3,0,0,0,597.57,24.87Z"></path><path class="cls-1" d="M603,18.23h1.34v12.6H603Z"></path><path class="cls-1" d="M618.81,18.23l-5.58,12.6h-1.31l-5.58-12.6h1.44l4.82,11,4.86-10.95Z"></path><path class="cls-1" d="M628.16,27.47h-7l-1.52,3.36h-1.38L624,18.23h1.31l5.76,12.6h-1.4Zm-.49-1.08-3-6.77-3,6.77Z"></path><path class="cls-1" d="M635.08,30.11a6,6,0,0,1-2.36-2.29,6.77,6.77,0,0,1,0-6.57,6,6,0,0,1,2.37-2.3,6.94,6.94,0,0,1,3.38-.83,7,7,0,0,1,2.59.47,5.29,5.29,0,0,1,2,1.37l-.85.85a5,5,0,0,0-3.72-1.5,5.45,5.45,0,0,0-2.72.69,4.93,4.93,0,0,0-1.92,1.87,5.49,5.49,0,0,0,0,5.33,5,5,0,0,0,1.92,1.87,5.54,5.54,0,0,0,2.72.68,4.93,4.93,0,0,0,3.72-1.51l.85.85a5.37,5.37,0,0,1-2,1.37,7.29,7.29,0,0,1-6-.35Z"></path><path class="cls-1" d="M645.92,18.23h1.34v12.6h-1.34Z"></path><path class="cls-1" d="M651.36,18.23h5.13A7.56,7.56,0,0,1,660,19a5.86,5.86,0,0,1,2.37,2.23,6.71,6.71,0,0,1,0,6.54A5.8,5.8,0,0,1,660,30a7.44,7.44,0,0,1-3.53.8h-5.13Zm5.06,11.45a6.11,6.11,0,0,0,2.9-.66,4.68,4.68,0,0,0,1.92-1.82,5.51,5.51,0,0,0,0-5.34A4.75,4.75,0,0,0,659.32,20a6.11,6.11,0,0,0-2.9-.66h-3.73v10.3Z"></path><path class="cls-1" d="M674,27.47h-7l-1.51,3.36H664l5.76-12.6h1.32l5.76,12.6h-1.41Zm-.48-1.08-3-6.77-3,6.77Z"></path><path class="cls-1" d="M679,18.23h5.13a7.56,7.56,0,0,1,3.53.8A5.86,5.86,0,0,1,690,21.26a6.71,6.71,0,0,1,0,6.54A5.8,5.8,0,0,1,687.62,30a7.44,7.44,0,0,1-3.53.8H679Zm5,11.45a6.08,6.08,0,0,0,2.9-.66,4.71,4.71,0,0,0,1.93-1.82,5.1,5.1,0,0,0,.68-2.67,5.1,5.1,0,0,0-.68-2.67A4.77,4.77,0,0,0,686.91,20a6.08,6.08,0,0,0-2.9-.66h-3.72v10.3Z"></path><path class="cls-1" d="M702.74,29.68v1.15h-8.91V18.23h8.64v1.15h-7.31v4.49h6.51V25h-6.51v4.68Z"></path><path class="cls-1" d="M589.07,39.89a6.06,6.06,0,0,1,2.67,2.22,6.72,6.72,0,0,1,0,6.82,5.93,5.93,0,0,1-2.67,2.22,10,10,0,0,1-4.08.77h-3.56V56.8h-4.1V39.11H585A9.83,9.83,0,0,1,589.07,39.89Zm-1.5,7.9a3.18,3.18,0,0,0,0-4.55,4.32,4.32,0,0,0-2.81-.8h-3.33v6.14h3.33A4.32,4.32,0,0,0,587.57,47.79Z"></path><path class="cls-1" d="M606.85,56.8l-3.41-4.93h-3.77V56.8h-4.09V39.11h7.66a9.83,9.83,0,0,1,4.08.78A6.11,6.11,0,0,1,610,42.11a6.19,6.19,0,0,1,.93,3.42,5.76,5.76,0,0,1-3.64,5.58l4,5.69Zm-1-13.56a4.32,4.32,0,0,0-2.81-.8h-3.34v6.17H603a4.26,4.26,0,0,0,2.81-.81,3.19,3.19,0,0,0,0-4.56Z"></path><path class="cls-1" d="M617.76,55.91a8.73,8.73,0,0,1-3.46-3.27,9.42,9.42,0,0,1,0-9.38A8.73,8.73,0,0,1,617.76,40a10.93,10.93,0,0,1,9.92,0,9,9,0,0,1,0,15.92,10.93,10.93,0,0,1-9.92,0Zm7.8-3a5.21,5.21,0,0,0,2-2,6.34,6.34,0,0,0,0-5.87,5.17,5.17,0,0,0-2-2,5.94,5.94,0,0,0-5.67,0,5.17,5.17,0,0,0-2,2,6.34,6.34,0,0,0,0,5.87,5.21,5.21,0,0,0,2,2,5.87,5.87,0,0,0,5.67,0Z"></path><path class="cls-1" d="M638.9,42.44h-5.66V39.11h15.42v3.33H643V56.8h-4.1Z"></path><path class="cls-1" d="M664.56,53.51V56.8h-13.7V39.11h13.37v3.28h-9.3v3.84h8.21v3.19h-8.21v4.09Z"></path><path class="cls-1" d="M679.72,47.68h3.74v7.17a10.63,10.63,0,0,1-3.33,1.67,12.93,12.93,0,0,1-3.82.58,10.34,10.34,0,0,1-4.95-1.17,8.74,8.74,0,0,1-3.45-3.26,9.52,9.52,0,0,1,0-9.43A8.66,8.66,0,0,1,671.38,40a10.58,10.58,0,0,1,5-1.18,10.83,10.83,0,0,1,4.22.79,8.39,8.39,0,0,1,3.18,2.27l-2.63,2.43a6.08,6.08,0,0,0-4.57-2,6.28,6.28,0,0,0-3,.71,5.06,5.06,0,0,0-2.05,2,6.31,6.31,0,0,0,0,5.89,5.23,5.23,0,0,0,2,2,6.05,6.05,0,0,0,3,.73,6.67,6.67,0,0,0,3.18-.76Z"></path><path class="cls-1" d="M687.26,39.11h4.09V56.8h-4.09Z"></path><path class="cls-1" d="M695.55,39.11h8a11.25,11.25,0,0,1,5.1,1.1,8.17,8.17,0,0,1,3.43,3.09,9.4,9.4,0,0,1,0,9.3,8.13,8.13,0,0,1-3.43,3.1,11.39,11.39,0,0,1-5.1,1.1h-8Zm7.83,14.33A5.91,5.91,0,0,0,707.61,52a5.21,5.21,0,0,0,1.58-4,5.18,5.18,0,0,0-1.58-4,5.91,5.91,0,0,0-4.23-1.48h-3.74v11Z"></path><path class="cls-1" d="M727.82,53h-8.21L718,56.8h-4.2l7.89-17.69h4l7.92,17.69h-4.3Zm-1.29-3.11-2.8-6.77-2.81,6.77Z"></path></g></g></svg>